<?xml version="1.0" encoding="utf-8"?>
<!-- Generator: Adobe Illustrator 19.0.0, SVG Export Plug-In . SVG Version: 6.00 Build 0)  -->
<svg version="1.1" id="Layer_1" xmlns="http://www.w3.org/2000/svg" xmlns:xlink="http://www.w3.org/1999/xlink" x="0px" y="0px"
	 viewBox="0 0 1280 800" style="enable-background:new 0 0 1280 800;" xml:space="preserve">
<style type="text/css">
	.st0{fill:#808080;stroke:#000000;stroke-miterlimit:10;}
</style>
<polyline id="XMLID_4_" class="st0" points="161.5,84 161.5,715 161.5,714.5 793,399 161.8,83.5 "/>
<path id="XMLID_1_" class="st0" d="M948,682.4h-88c-6.6,0-12-5.4-12-12V127.6c0-6.6,5.4-12,12-12h88c6.6,0,12,5.4,12,12v542.8
	C960,677,954.6,682.4,948,682.4z"/>
<path id="XMLID_2_" class="st0" d="M1122,682.6h-88c-6.6,0-12-5.4-12-12V127.9c0-6.6,5.4-12,12-12h88c6.6,0,12,5.4,12,12v542.8
	C1134,677.2,1128.6,682.6,1122,682.6z"/>
</svg>
